<?xml version="1.0" standalone="no"?>
<!DOCTYPE svg PUBLIC "-//W3C//DTD SVG 20010904//EN"
 "http://www.w3.org/TR/2001/REC-SVG-20010904/DTD/svg10.dtd">
<svg version="1.0" xmlns="http://www.w3.org/2000/svg"
 width="2000.000000pt" height="2000.000000pt" viewBox="0 0 2000.000000 2000.000000"
 preserveAspectRatio="xMidYMid meet">
<metadata>
Created by potrace 1.16, written by Peter Selinger 2001-2019
</metadata>
<g transform="translate(0.000000,2000.000000) scale(0.100000,-0.100000)"
fill="#000000" stroke="none">
<path d="M8710 19883 c-396 -6 -1089 -42 -1413 -73 -818 -79 -1514 -223 -1977
-408 -339 -136 -569 -273 -745 -444 l-100 -98 -1630 -42 -1630 -42 -349 -255
-349 -255 6 -290 c27 -1229 241 -2515 598 -3590 234 -705 542 -1382 910 -1998
300 -503 656 -989 1058 -1443 152 -172 630 -650 806 -805 455 -402 906 -742
1430 -1076 320 -204 786 -539 1195 -858 539 -422 1043 -863 1634 -1433 l190
-183 38 -122 c234 -750 257 -1329 73 -1858 -70 -200 -180 -394 -333 -587 -56
-72 -71 -84 -116 -99 -28 -9 -112 -58 -186 -109 -678 -462 -1241 -723 -1810
-839 -69 -14 -165 -28 -215 -31 -85 -7 -101 -12 -275 -88 -313 -138 -455 -251
-559 -443 -73 -135 -89 -179 -101 -277 -18 -150 11 -271 109 -442 84 -149 192
-266 357 -392 199 -150 372 -253 718 -424 225 -112 289 -138 500 -208 464
-154 899 -261 1426 -350 584 -99 1280 -145 1891 -124 208 7 385 7 524 1 582
-27 1350 22 1945 123 494 84 996 207 1439 354 198 65 266 94 478 199 486 242
765 423 949 619 246 261 310 611 164 897 -87 171 -281 332 -532 441 -62 27
-140 62 -173 78 -47 23 -80 31 -150 36 -49 4 -148 18 -220 32 -569 109 -1151
379 -1818 845 -71 49 -147 97 -170 107 -32 14 -62 43 -121 117 -251 313 -382
618 -437 1014 -17 118 -17 492 -1 615 37 280 90 515 171 765 l49 150 238 233
c805 786 1554 1411 2389 1993 211 147 607 404 623 404 10 0 349 239 487 344
438 331 806 654 1181 1036 520 528 887 996 1341 1710 23 36 101 169 173 295
465 812 870 1887 1079 2860 182 846 250 1397 311 2520 6 110 14 218 17 240 l5
40 -358 256 -359 255 -1624 42 -1624 42 -57 58 c-268 275 -708 491 -1340 657
-447 117 -1196 227 -1806 265 -615 38 -829 42 -2314 43 -811 1 -1536 1 -1610
0z m3155 -454 c770 -30 1240 -72 1739 -155 401 -67 692 -136 981 -234 176 -60
450 -192 585 -281 90 -61 239 -198 325 -301 l40 -47 1665 -42 1664 -42 181
-127 c99 -70 190 -134 203 -141 22 -13 22 -18 17 -104 -3 -49 -12 -205 -21
-345 -68 -1148 -250 -2130 -577 -3120 -330 -1001 -812 -1913 -1449 -2745 -125
-164 -349 -434 -488 -590 -116 -130 -526 -537 -693 -688 -387 -350 -913 -749
-1347 -1021 -650 -408 -1467 -1026 -2135 -1615 -280 -248 -724 -663 -911 -853
l-151 -153 -51 -150 c-162 -475 -244 -922 -244 -1330 -1 -477 90 -853 296
-1220 129 -231 365 -514 476 -570 29 -15 117 -71 196 -126 588 -407 1217 -714
1729 -843 136 -34 354 -74 445 -81 82 -7 142 -27 265 -88 210 -104 305 -208
313 -344 5 -78 -13 -134 -68 -209 -138 -186 -374 -350 -843 -584 -204 -103
-269 -130 -465 -194 -910 -299 -1824 -449 -2732 -449 -173 0 -499 0 -725 0
-225 0 -556 0 -735 0 -795 0 -1537 104 -2345 327 -359 98 -608 188 -840 301
-379 184 -624 341 -785 504 -206 208 -212 381 -17 540 117 97 289 171 440 191
706 93 1340 364 2232 953 200 132 235 163 369 322 272 322 421 643 505 1085
70 373 45 862 -70 1350 -37 155 -55 219 -127 444 l-56 178 -251 242 c-1015
983 -1953 1740 -2934 2371 -1001 644 -1817 1376 -2499 2245 -361 460 -643 900
-914 1427 -298 581 -491 1060 -685 1703 -275 913 -452 2019 -488 3055 l-6 170
203 141 203 142 1640 41 c902 23 1656 41 1675 42 31 0 37 4 52 37 23 50 123
158 213 232 268 219 737 409 1285 521 646 132 1165 188 2085 228 273 11 3341
12 3630 0z"/>
<path d="M1894 17133 c3 -10 22 -81 41 -158 169 -650 466 -1544 713 -2141 525
-1272 1139 -2236 1888 -2964 395 -384 812 -681 1279 -911 167 -82 390 -179
411 -179 3 0 -16 37 -41 83 -433 776 -782 1914 -1064 3462 -130 716 -268 1720
-351 2565 -12 118 -23 225 -26 238 l-4 22 -1426 0 c-1353 0 -1425 -1 -1420
-17z m2567 -838 c157 -1346 402 -2722 634 -3570 93 -341 165 -584 219 -745 31
-91 56 -166 56 -168 0 -8 -223 179 -350 294 -1012 919 -1817 2381 -2414 4386
-31 103 -56 191 -56 197 0 8 273 10 932 9 l933 -3 46 -400z"/>
<path d="M15406 17113 c-3 -21 -13 -103 -21 -183 -139 -1272 -276 -2208 -455
-3085 -88 -432 -120 -577 -182 -820 -222 -881 -486 -1611 -771 -2134 -32 -57
-56 -106 -54 -108 4 -4 156 58 287 117 208 94 545 284 705 398 355 253 516
390 814 691 643 651 1176 1480 1666 2591 278 631 547 1408 775 2245 46 165 85
305 87 312 4 11 -275 13 -1420 13 l-1425 0 -6 -37z m2344 -423 c0 -14 -84
-291 -172 -565 -299 -936 -716 -1885 -1116 -2540 -435 -712 -870 -1225 -1444
-1703 -49 -40 -88 -72 -88 -70 0 2 29 95 65 208 147 462 304 1067 415 1595
160 762 329 1831 435 2745 20 173 38 321 40 328 6 16 1865 18 1865 2z"/>
</g>
</svg>
